<mxfile host="app.diagrams.net" modified="2024-04-16T06:46:17.210Z" agent="Mozilla/5.0 (Macintosh; Intel Mac OS X 10_15_7) AppleWebKit/537.36 (KHTML, like Gecko) Chrome/122.0.0.0 Safari/537.36" version="24.2.5" etag="l9AI3reXHdURBbUlSUpg" type="github">
  <diagram name="第 1 页" id="b5aURCK1lJJ4UCyQ_gpC">
    <mxGraphModel>
      <root>
        <mxCell id="0" />
        <mxCell id="1" parent="0" />
      </root>
    </mxGraphModel>
  </diagram>
</mxfile>
